<?xml version="1.0" standalone="no"?>
<!DOCTYPE svg PUBLIC "-//W3C//DTD SVG 1.1//EN" "http://www.w3.org/Graphics/SVG/1.1/DTD/svg11.dtd" >
<svg xmlns="http://www.w3.org/2000/svg">
<metadata>
Created by FontForge 20120731 at Thu Dec 15 18:34:15 2016
 By admin
</metadata>
<defs>
<font id="iconfont" horiz-adv-x="1024" >
  <font-face 
    font-family="iconfont"
    font-weight="500"
    font-stretch="normal"
    units-per-em="1024"
    panose-1="2 0 6 3 0 0 0 0 0 0"
    ascent="896"
    descent="-128"
    x-height="792"
    bbox="0 -128 1024 896"
    underline-thickness="0"
    underline-position="0"
    unicode-range="U+0078-E634"
  />
<missing-glyph 
 />
    <glyph glyph-name=".notdef" 
 />
    <glyph glyph-name=".notdef" 
 />
    <glyph glyph-name=".null" horiz-adv-x="0" 
 />
    <glyph glyph-name="nonmarkingreturn" horiz-adv-x="341" 
 />
    <glyph glyph-name="x" unicode="x" horiz-adv-x="1001" 
d="M281 543q-27 -1 -53 -1h-83q-18 0 -36.5 -6t-32.5 -18.5t-23 -32t-9 -45.5v-76h912v41q0 16 -0.5 30t-0.5 18q0 13 -5 29t-17 29.5t-31.5 22.5t-49.5 9h-133v-97h-438v97zM955 310v-52q0 -23 0.5 -52t0.5 -58t-10.5 -47.5t-26 -30t-33 -16t-31.5 -4.5q-14 -1 -29.5 -0.5
t-29.5 0.5h-32l-45 128h-439l-44 -128h-29h-34q-20 0 -45 1q-25 0 -41 9.5t-25.5 23t-13.5 29.5t-4 30v167h911zM163 247q-12 0 -21 -8.5t-9 -21.5t9 -21.5t21 -8.5q13 0 22 8.5t9 21.5t-9 21.5t-22 8.5zM316 123q-8 -26 -14 -48q-5 -19 -10.5 -37t-7.5 -25t-3 -15t1 -14.5
t9.5 -10.5t21.5 -4h37h67h81h80h64h36q23 0 34 12t2 38q-5 13 -9.5 30.5t-9.5 34.5q-5 19 -11 39h-368zM336 498v228q0 11 2.5 23t10 21.5t20.5 15.5t34 6h188q31 0 51.5 -14.5t20.5 -52.5v-227h-327z" />
    <glyph glyph-name="PXshangjiantou" unicode="&#xe61d;" 
d="M759 247l-256 256q-10 9 -23 9t-23 -9l-256 -256q-9 -10 -9 -23t9.5 -22.5t22.5 -9.5t23 9l233 234l233 -234q10 -9 23 -9t22.5 9.5t9.5 22.5t-9 23z" />
    <glyph glyph-name="PXchahao" unicode="&#xe61e;" 
d="M603 384l403 403q18 18 18 44.5t-18 44.5l-2 2q-18 18 -44.5 18t-44.5 -18l-403 -403l-403 403q-18 18 -44.5 18t-44.5 -18l-2 -2q-18 -18 -18 -44.5t18 -44.5l403 -403l-403 -403q-18 -18 -18 -44.5t18 -44.5l2 -2q18 -18 44.5 -18t44.5 18l403 403l403 -403
q18 -18 44.5 -18t44.5 18l2 2q18 18 18 44.5t-18 44.5z" />
    <glyph glyph-name="invoce" unicode="&#xe61f;" 
d="M320 544h384v-64h-384v64zM320 384h384v-64h-384v64zM736 704h-448q-40 0 -68 -28t-28 -68v-576q0 -40 28 -68t68 -28h64q13 0 22.5 9.5t9.5 22.5t-9.5 22.5t-22.5 9.5h-64q-13 0 -22.5 9.5t-9.5 22.5v576q0 13 9.5 22.5t22.5 9.5h448q13 0 22.5 -9.5t9.5 -22.5v-352
h-160q-40 0 -68 -28t-28 -68v-192q0 -16 13 -26v0l0.5 -0.5l0.5 -0.5h1v-1q3 -1 7 -3v0h2v0h1v0q1 0 1 -0.5t0.5 -0.5h0.5v0h0.5h0.5h0.5h0.5v0h1h4h1h0.5h0.5h0.5h0.5v0l0.5 0.5l0.5 0.5h1h1v0h1v0q4 1 7 3v1h1.5t0.5 0.5v0.5h1l4 4l237 237q28 28 28 68v357q0 40 -28 68
t-68 28zM608 192h115l-147 -147v115q0 13 9.5 22.5t22.5 9.5z" />
    <glyph glyph-name="package" unicode="&#xe623;" 
d="M977 683l-450 124h-9q-1 0 -1 -1l-448 -123h-3v-1h-1v-1h-1l-0.5 -0.5l-0.5 -0.5v-1h-1l-1 -1v0l-1 -1v0v-1h-1v-1h-1v-1h-1v-1v0v-2q0 -1 -1 -1v-564q0 -13 13 -17l478 -153h11l1 1v0l419 152q12 4 12 17v559q1 15 -13 18zM535 -20l-442 141v521l442 -128v-534zM563 540
l-422 126l108 30l85 23l418 -126q-183 -55 -189 -53zM813 611l-417 126l39 10l87 24l432 -118q-65 -20 -141 -42z" />
    <glyph glyph-name="warning" unicode="&#xe624;" 
d="M480 160zM448 160q0 -13 9.5 -22.5t22.5 -9.5t22.5 9.5t9.5 22.5t-9.5 22.5t-22.5 9.5t-22.5 -9.5t-9.5 -22.5zM480 768q-172 0 -294 -122t-122 -294t122 -294t294 -122t294 122t122 294t-122 294t-294 122zM729 103q-49 -49 -112 -75q-65 -28 -137 -28t-137 28
q-63 26 -112 75t-75 112q-28 65 -28 137t28 137q26 63 75 112t112 75q65 28 137 28t137 -28q63 -26 112 -75t75 -112q28 -65 28 -137t-28 -137q-26 -63 -75 -112zM480 576q-13 0 -22.5 -9.5t-9.5 -22.5v-256q0 -13 9.5 -22.5t22.5 -9.5t22.5 9.5t9.5 22.5v256
q0 13 -9.5 22.5t-22.5 9.5z" />
    <glyph glyph-name="tick" unicode="&#xe625;" 
d="M428 -55l-227 227q-9 9 -9 22t9.5 22.5t22.5 9.5t23 -9l226 -226q9 -10 9 -23t-9.5 -22.5t-22.5 -9.5t-22 9zM835 307l-362 -362q-10 -9 -23 -9t-22.5 9.5t-9.5 22.5t10 23l362 362q9 9 22 9t22.5 -9.5t9.5 -22.5t-9 -23z" />
    <glyph glyph-name="PXchahao1" unicode="&#xe626;" 
d="M557 384l458 457q9 10 9 23t-9.5 22.5t-22.5 9.5t-23 -9l-457 -458l-457 458q-10 9 -23 9t-22.5 -9.5t-9.5 -22.5t9 -23l458 -457l-458 -457q-9 -10 -9 -23t9.5 -22.5t22.5 -9.5t23 9l457 458l457 -458q10 -9 23 -9t22.5 9.5t9.5 22.5t-9 23z" />
    <glyph glyph-name="PXxiajiantou" unicode="&#xe627;" 
d="M758.5 502.5q-9.5 9.5 -22.5 9.5t-23 -9l-233 -234l-233 234q-10 9 -23 9t-22.5 -9.5t-9.5 -22.5t9 -23l256 -256q10 -9 23 -9t23 9l256 256q9 10 9 23t-9.5 22.5z" />
    <glyph glyph-name="gouxuan" unicode="&#xe628;" 
d="M476 232q15 -2 29 11l208 208q1 2 3 4.5t5 10t2 14.5q0 17 -10 26q-12 11 -27 11q-17 1 -30 -12l-179 -180l-102 103q-2 1 -4.5 3t-10 5.5t-14.5 2.5q-17 0 -27 -11q-10 -9 -11 -26t12 -30l129 -129v0q10 -11 27 -11zM516 801q-113 0 -209 -56t-151.5 -151.5
t-55.5 -208.5v-1q0 -62 18 -122v-0.5v-0.5q3 -13 14 -21t24 -8q17 0 28.5 11t11.5 28v0q0 7 -3 14q-15 49 -15 100v0q0 91 45.5 169t123 123.5t169.5 45.5t170 -45.5t123.5 -123.5t45.5 -169.5t-45.5 -169.5t-123.5 -123.5t-170 -45.5q-137 0 -236 96q-11 12 -28 12v0
q-16 0 -28 -11t-12 -27.5t12 -27.5v0q58 -57 133 -88.5t159 -31.5q113 0 208.5 56t151.5 152t56 209t-56 208.5t-151.5 151.5t-208.5 56z" />
    <glyph glyph-name="scan" unicode="&#xe62a;" 
d="M928 353h-833q-14 0 -23.5 9.5t-9.5 22.5t9.5 22.5t23.5 9.5h833q14 0 23 -9.5t9 -22.5t-9 -22.5t-23 -9.5zM832 -32h-192q-14 0 -23 9.5t-9 23t9 22.5t23 9h192q13 0 22.5 9.5t9.5 22.5v161q0 13 9.5 22.5t23 9.5t22.5 -9.5t9 -22.5v-161q0 -39 -28 -67.5t-68 -28.5z
M351 -32h-160q-40 0 -68 28.5t-28 67.5v161q0 13 9 22.5t22.5 9.5t23 -9.5t9.5 -22.5v-161q0 -13 9 -22.5t23 -9.5h160q13 0 22.5 -9t9.5 -22.5t-9.5 -23t-22.5 -9.5zM126.5 513q-13.5 0 -22.5 9.5t-9 22.5v161q0 40 28 68t68 28h160q13 0 22.5 -9.5t9.5 -22.5t-9.5 -22.5
t-22.5 -9.5h-160q-14 0 -23 -9.5t-9 -22.5v-161q0 -13 -9.5 -22.5t-23 -9.5zM896.5 513q-13.5 0 -23 9.5t-9.5 22.5v161q0 13 -9.5 22.5t-22.5 9.5h-192q-14 0 -23 9.5t-9 22.5t9 22.5t23 9.5h192q40 0 68 -28t28 -68v-161q0 -13 -9 -22.5t-22.5 -9.5zM896 513z" />
    <glyph glyph-name="PXyoujiantou" unicode="&#xe62b;" 
d="M695 375q-1 0 -2 1l-382 383q-10 9 -23 9t-22.5 -9.5t-9.5 -22.5t9 -23l362 -361l-362 -361q-9 -10 -9 -23t9.5 -22.5t22.5 -9.5t23 9l382 383q1 1 2 1q9 10 9 23t-9 23z" />
    <glyph glyph-name="PXjiahao" unicode="&#xe62c;" 
d="M928 448h-416v416q0 13 -9.5 22.5t-22.5 9.5t-22.5 -9.5t-9.5 -22.5v-416h-416q-13 0 -22.5 -9.5t-9.5 -22.5t9.5 -22.5t22.5 -9.5h416v-416q0 -13 9.5 -22.5t22.5 -9.5t22.5 9.5t9.5 22.5v416h416q13 0 22.5 9.5t9.5 22.5t-9.5 22.5t-22.5 9.5z" />
    <glyph glyph-name="invoce1" unicode="&#xe629;" 
d="M625 656h-376q-13 0 -22.5 -9.5t-9.5 -22.5t9.5 -22.5t22.5 -9.5h376q13 0 22.5 9.5t9.5 22.5t-9.5 22.5t-22.5 9.5zM657 471q0 13 -9.5 22.5t-22.5 9.5h-376q-13 0 -22.5 -9.5t-9.5 -22.5t9.5 -22.5t22.5 -9.5h376q13 0 22.5 9.5t9.5 22.5zM247 354q-13 0 -22.5 -9.5
t-9.5 -23t9.5 -22.5t22.5 -9h128q13 0 22.5 9t9.5 22.5t-9.5 23t-22.5 9.5h-128zM700 799h-25h-3q-13 0 -22.5 -9.5t-9.5 -22.5t9.5 -22.5t22.5 -9.5v0h28q5 0 8.5 -3.5t3.5 -8.5v-406h-202q-39 0 -66.5 -29.5t-27.5 -71.5v-184h-244q-5 0 -8.5 3.5t-3.5 8.5v679
q0 5 3.5 8.5t8.5 3.5h52v0q13 0 22.5 9.5t9.5 22.5t-9.5 22.5t-22.5 9.5h-3h-49q-32 0 -54 -22t-22 -54v-679q0 -32 22 -54t54 -22h288l316 316v439q0 32 -22.5 54t-53.5 22zM480 78v138q0 16 9 26.5t21 10.5h145zM320 735h256q13 0 22.5 9.5t9.5 22.5t-9.5 22.5t-22.5 9.5
h-48q-3 22 -26 37t-54 15t-54 -15t-26 -37h-48q-13 0 -22.5 -9.5t-9.5 -22.5t9.5 -22.5t22.5 -9.5z" />
    <glyph glyph-name="location1" unicode="&#xe630;" 
d="M512 -41v0q-13 0 -22 8q-77 73 -153 171q-157 202 -157 342q0 65 26 125q25 58 71 102q98 93 235 93t235 -93q46 -44 71 -102q26 -60 26 -125q0 -140 -157 -342q-76 -98 -153 -171q-9 -8 -22 -8v0zM512 736q-111 0 -189.5 -75t-78.5 -181q0 -45 22 -101t52 -104t71 -99.5
t68.5 -82t54.5 -57.5q27 27 54.5 57.5t68.5 82t71 99.5t52 104t22 101q0 106 -78.5 181t-189.5 75zM512 352q-53 0 -90.5 37.5t-37.5 90.5t37.5 90.5t90.5 37.5t90.5 -37.5t37.5 -90.5t-37.5 -90.5t-90.5 -37.5zM512 544q-26 0 -45 -19t-19 -45t19 -45t45 -19t45 19t19 45
t-19 45t-45 19z" />
    <glyph glyph-name="question1" unicode="&#xe631;" 
d="M391 681l3 3q-2 -1 -3 -3zM512 800q-172 0 -294 -122t-122 -294t122 -294t294 -122t294 122t122 294t-122 294t-294 122zM761 135q-49 -49 -112 -75q-65 -28 -137 -28t-137 28q-63 26 -112 75t-75 112q-28 65 -28 137t28 137q26 63 75 112t112 75q65 28 137 28t137 -28
q63 -26 112 -75t75 -112q28 -65 28 -137t-28 -137q-26 -63 -75 -112zM512 160zM480 160q0 -13 9.5 -22.5t22.5 -9.5t22.5 9.5t9.5 22.5t-9.5 22.5t-22.5 9.5t-22.5 -9.5t-9.5 -22.5zM526 648v0h-1q-70 0 -118 -52q-1 -1 -2 -3q-2 -1 -2 -3q-37 -44 -37 -102v0v-6
q0 -13 9.5 -22.5t22.5 -9.5t22.5 9.5t9.5 22.5q0 3 -1 6h1q0 40 28 68t68 28q39 0 67 -28t28 -68q0 -32 -19 -57t-48 -34l-6 -2q-12 -4 -23 -10q-45 -29 -45 -82v-47q0 -13 9.5 -22.5t22.5 -9.5t22.5 9.5t9.5 22.5v47v0q0 22 20 30q53 13 87.5 56.5t34.5 98.5
q0 67 -47 113.5t-113 46.5z" />
    <glyph glyph-name="delet" unicode="&#xe62d;" 
d="M192 0h64v-64h512v64h64v640h-640v-640zM640 448h64v-320h-64v320zM320 448h64v-320h-64v320zM704 768v64h-384v-64h-128v-64h640v64h-128z" />
    <glyph glyph-name="edit" unicode="&#xe62f;" 
d="M937 743l-67 67q-21 20 -50 20t-50 -20l-84 -84l168 -168l83 84q21 21 21 50.5t-21 50.5zM200 239l167 -167l455 452l-167 167zM65 -65l268 106l-166 166z" />
    <glyph glyph-name="PXjiahao1" unicode="&#xe62e;" 
d="M960 448h-384v384q0 26 -18.5 44.5t-45 18.5t-45.5 -18.5t-19 -44.5v-384h-384q-26 0 -44.5 -19t-18.5 -45.5t18.5 -45t44.5 -18.5h384v-384q0 -27 19 -45.5t45.5 -18.5t45 18.5t18.5 45.5v384h384q27 0 45.5 18.5t18.5 45t-18.5 45.5t-45.5 19z" />
    <glyph glyph-name="icon-1" unicode="&#xe634;" 
d="M391 640l3 3q-2 -1 -3 -3zM512 405zM171 405.5q0 -92.5 45.5 -171.5t124 -124.5t171.5 -45.5t171.5 45.5t124 124.5t45.5 171.5t-45.5 171t-124 124.5t-171.5 46t-171.5 -46t-124 -124.5t-45.5 -171zM576 416q0 -27 -18.5 -45.5t-45.5 -18.5t-45.5 18.5t-18.5 45.5v192
q0 27 18.5 45.5t45.5 18.5t45.5 -18.5t18.5 -45.5v-192zM576 224q0 -27 -18.5 -45.5t-45.5 -18.5t-45.5 18.5t-18.5 45.5t18.5 45.5t45.5 18.5t45.5 -18.5t18.5 -45.5z" />
  </font>
</defs>
</svg>
